<svg xmlns="http://www.w3.org/2000/svg" xmlns:xlink="http://www.w3.org/1999/xlink">

    <symbol id="HAMBURGER" viewBox="0 0 24 24">
        <path d="M 0.75 6.1875 L 20.25 6.1875 C 20.664062 6.1875 21 5.851562 21 5.4375 L 21 3.5625 C 21 3.148438 20.664062 2.8125 20.25 2.8125 L 0.75 2.8125 C 0.335938 2.8125 0 3.148438 0 3.5625 L 0 5.4375 C 0 5.851562 0.335938 6.1875 0.75 6.1875 Z M 0.75 13.6875 L 20.25 13.6875 C 20.664062 13.6875 21 13.351562 21 12.9375 L 21 11.0625 C 21 10.648438 20.664062 10.3125 20.25 10.3125 L 0.75 10.3125 C 0.335938 10.3125 0 10.648438 0 11.0625 L 0 12.9375 C 0 13.351562 0.335938 13.6875 0.75 13.6875 Z M 0.75 21.1875 L 20.25 21.1875 C 20.664062 21.1875 21 20.851562 21 20.4375 L 21 18.5625 C 21 18.148438 20.664062 17.8125 20.25 17.8125 L 0.75 17.8125 C 0.335938 17.8125 0 18.148438 0 18.5625 L 0 20.4375 C 0 20.851562 0.335938 21.1875 0.75 21.1875 Z M 0.75 21.1875 "/>
    </symbol>

    <symbol id="TIMES" viewBox="0 0 24 24">
        <path d="M 11.03125 11.5 L 15.582031 7.003906 C 16.140625 6.453125 16.140625 5.558594 15.582031 5.007812 L 14.570312 4.007812 C 14.011719 3.457031 13.105469 3.457031 12.546875 4.007812 L 8 8.503906 L 3.453125 4.007812 C 2.894531 3.457031 1.988281 3.457031 1.429688 4.007812 L 0.417969 5.007812 C -0.140625 5.558594 -0.140625 6.453125 0.417969 7.003906 L 4.96875 11.5 L 0.417969 15.996094 C -0.140625 16.546875 -0.140625 17.441406 0.417969 17.992188 L 1.429688 18.992188 C 1.988281 19.542969 2.894531 19.542969 3.453125 18.992188 L 8 14.496094 L 12.546875 18.992188 C 13.105469 19.542969 14.011719 19.542969 14.570312 18.992188 L 15.582031 17.992188 C 16.140625 17.441406 16.140625 16.546875 15.582031 15.996094 Z M 11.03125 11.5 "/>
    </symbol>

</svg>